<svg width="86" height="80" viewBox="0 0 86 80" fill="none" xmlns="http://www.w3.org/2000/svg">
<g clip-path="url(#clip0_78_1342)">
<path d="M84.1382 77.4472H78.2166V17.7998H84.2082C84.455 17.7991 84.6963 17.7273 84.9033 17.5928C85.1103 17.4584 85.2741 17.2671 85.375 17.0419C85.4759 16.8167 85.5098 16.5671 85.4723 16.3231C85.4349 16.0792 85.3278 15.8512 85.164 15.6666L71.5024 0.407988C71.3776 0.281108 71.2289 0.180307 71.0648 0.111519C70.9007 0.042731 70.7245 0.00732422 70.5466 0.00732422C70.3686 0.00732422 70.1924 0.042731 70.0283 0.111519C69.8642 0.180307 69.7154 0.281108 69.5906 0.407988L55.929 15.6666C55.7652 15.8512 55.6582 16.0792 55.6208 16.3231C55.5834 16.5671 55.6171 16.8167 55.718 17.0419C55.8189 17.2671 55.9827 17.4584 56.1897 17.5928C56.3967 17.7273 56.638 17.7991 56.8848 17.7998H62.923V77.4472H59.7058V28.3142C59.7058 27.9741 59.5707 27.6479 59.3303 27.4075C59.0898 27.167 58.7636 27.0319 58.4236 27.0319H45.6012C45.2611 27.0319 44.935 27.167 44.6945 27.4075C44.454 27.6479 44.319 27.9741 44.319 28.3142V77.4472H41.1017V41.1948C41.1017 40.8547 40.9665 40.5286 40.7261 40.2881C40.4856 40.0476 40.1596 39.9126 39.8195 39.9126H26.9971C26.657 39.9126 26.3309 40.0476 26.0904 40.2881C25.85 40.5286 25.7148 40.8547 25.7148 41.1948V77.4472H22.5092V50.1122C22.5092 49.7721 22.3741 49.446 22.1337 49.2055C21.8932 48.9651 21.567 48.8299 21.227 48.8299H8.40458C8.06451 48.8299 7.73835 48.9651 7.49788 49.2055C7.25741 49.446 7.12237 49.7721 7.12237 50.1122V77.4472H1.20081C0.860738 77.4472 0.534579 77.5823 0.294113 77.8227C0.0536464 78.0632 -0.081543 78.3894 -0.081543 78.7294C-0.081543 79.0695 0.0536464 79.3956 0.294113 79.6361C0.534579 79.8766 0.860738 80.0116 1.20081 80.0116H84.0567C84.3967 80.0116 84.7229 79.8766 84.9634 79.6361C85.2038 79.3956 85.3389 79.0695 85.3389 78.7294C85.3389 78.3894 85.2038 78.0632 84.9634 77.8227C84.7229 77.5823 84.3967 77.4472 84.0567 77.4472H84.1382ZM64.1587 15.2353H59.7524L70.5466 3.19392L81.3407 15.2353H76.9111C76.571 15.2353 76.2449 15.3704 76.0044 15.6109C75.7639 15.8513 75.6289 16.1775 75.6289 16.5175V77.4472H65.4176V16.4942C65.4116 16.1622 65.277 15.8455 65.0422 15.6107C64.8074 15.3759 64.4907 15.2413 64.1587 15.2353ZM46.8834 77.4472V29.5964H57.0947V77.4472H46.8834ZM28.3259 42.4771H38.5488V77.4472H28.3259V42.4771ZM9.76846 77.4472V51.3944H19.9914V77.4472H9.76846Z" fill="#66666A"/>
</g>
<defs>
<clipPath id="clip0_78_1342">
<rect width="85.4903" height="80" fill="white"/>
</clipPath>
</defs>
</svg>
