<svg width="83" height="80" viewBox="0 0 83 80" fill="none" xmlns="http://www.w3.org/2000/svg">
<g clip-path="url(#clip0_78_1340)">
<path d="M29.4609 30.5561C29.111 30.5561 28.7755 30.6951 28.5281 30.9425C28.2807 31.1899 28.1417 31.5254 28.1417 31.8752C28.1417 32.2251 28.2807 32.5607 28.5281 32.808C28.7755 33.0554 29.111 33.1944 29.4609 33.1944H32.7827V35.1012C32.7652 35.2841 32.7862 35.4688 32.8442 35.6432C32.9022 35.8176 32.9961 35.978 33.1197 36.114C33.2433 36.2501 33.394 36.3588 33.5621 36.4332C33.7302 36.5075 33.912 36.5459 34.0958 36.5459C34.2797 36.5459 34.4615 36.5075 34.6296 36.4332C34.7977 36.3588 34.9485 36.2501 35.0721 36.114C35.1957 35.978 35.2896 35.8176 35.3476 35.6432C35.4056 35.4688 35.4265 35.2841 35.4089 35.1012V33.1824C36.6812 33.1824 37.9013 32.677 38.8009 31.7774C39.7005 30.8778 40.2058 29.6577 40.2058 28.3855C40.2058 27.1133 39.7005 25.8932 38.8009 24.9936C37.9013 24.094 36.6812 23.5886 35.4089 23.5886V19.1515H38.7788C39.1287 19.1515 39.4642 19.0125 39.7116 18.7651C39.959 18.5178 40.0979 18.1822 40.0979 17.8324C40.0979 17.4825 39.959 17.147 39.7116 16.8996C39.4642 16.6522 39.1287 16.5132 38.7788 16.5132H35.4089V14.6784C35.4265 14.4954 35.4056 14.3108 35.3476 14.1364C35.2896 13.962 35.1957 13.8016 35.0721 13.6656C34.9485 13.5295 34.7977 13.4208 34.6296 13.3464C34.4615 13.2721 34.2797 13.2336 34.0958 13.2336C33.912 13.2336 33.7302 13.2721 33.5621 13.3464C33.394 13.4208 33.2433 13.5295 33.1197 13.6656C32.9961 13.8016 32.9022 13.962 32.8442 14.1364C32.7862 14.3108 32.7652 14.4954 32.7827 14.6784V16.5372C31.5105 16.5372 30.2905 17.0426 29.3909 17.9422C28.4913 18.8418 27.9858 20.0619 27.9858 21.3341C27.9858 22.6063 28.4913 23.8264 29.3909 24.726C30.2905 25.6256 31.5105 26.131 32.7827 26.131V30.5561H29.4609ZM37.5076 28.3495C37.5059 28.9066 37.2938 29.4425 36.9134 29.8496C36.533 30.2566 36.0127 30.5048 35.457 30.5441V26.1669C36.0106 26.2061 36.5292 26.4526 36.9093 26.8571C37.2894 27.2616 37.5029 27.7945 37.5076 28.3495ZM30.78 21.2981C30.7846 20.7431 30.9983 20.2102 31.3784 19.8057C31.7585 19.4012 32.2771 19.1548 32.8307 19.1156V23.4927C32.275 23.4534 31.7547 23.2052 31.3743 22.7982C30.9939 22.3911 30.7816 21.8552 30.78 21.2981Z" fill="#66666A"/>
<path d="M75.9546 52.1301C74.5534 52.1429 73.1979 52.63 72.109 53.512C71.0201 54.394 70.262 55.6189 69.9585 56.9869H38.0113C36.4094 57.0573 34.8966 57.7432 33.788 58.9016C32.6793 60.06 32.0604 61.6015 32.0604 63.2049C32.0604 64.8083 32.6793 66.3499 33.788 67.5083C34.8966 68.6667 36.4094 69.3525 38.0113 69.4229H50.699C51.6531 69.4229 52.5682 69.8019 53.2429 70.4766C53.9176 71.1513 54.2966 72.0664 54.2966 73.0205V73.788C54.2966 74.7422 53.9176 75.6573 53.2429 76.3319C52.5682 77.0066 51.6531 77.3857 50.699 77.3857H14.4107V44.491H64.2262C64.47 44.5004 64.7115 44.4413 64.9235 44.3205C65.1354 44.1997 65.3092 44.022 65.4254 43.8075C65.5459 43.6064 65.6096 43.3764 65.6096 43.1419C65.6096 42.9075 65.5459 42.6775 65.4254 42.4764L54.5246 24.8238L65.4254 7.18331C65.5457 6.97995 65.6092 6.74802 65.6092 6.51175C65.6092 6.27548 65.5457 6.04355 65.4254 5.84019C65.3076 5.62794 65.1331 5.45267 64.9213 5.33405C64.7095 5.21544 64.4688 5.15817 64.2262 5.16863H14.4107V4.605C14.4107 3.38685 13.9267 2.2186 13.0654 1.35724C12.204 0.495886 11.0357 0.0119629 9.8176 0.0119629C8.59945 0.0119629 7.43116 0.495886 6.56981 1.35724C5.70845 2.2186 5.22464 3.38685 5.22464 4.605V77.3617H1.62697C1.27712 77.3617 0.94157 77.5007 0.694182 77.7481C0.446795 77.9955 0.307861 78.331 0.307861 78.6808C0.307861 79.0307 0.446795 79.3662 0.694182 79.6136C0.94157 79.861 1.27712 80 1.62697 80H50.6751C52.3248 79.9968 53.906 79.3401 55.0725 78.1735C56.239 77.007 56.8958 75.4258 56.899 73.776V73.0085C56.8958 71.3588 56.239 69.7775 55.0725 68.611C53.906 67.4445 52.3248 66.7878 50.6751 66.7846H37.9873C37.0331 66.7846 36.118 66.4055 35.4433 65.7308C34.7686 65.0562 34.3896 64.1411 34.3896 63.1869C34.3896 62.2328 34.7686 61.3177 35.4433 60.643C36.118 59.9683 37.0331 59.5893 37.9873 59.5893H69.9585C70.2077 60.7289 70.7745 61.7746 71.5934 62.6054C72.4123 63.4362 73.4497 64.0181 74.5856 64.2837C75.7215 64.5494 76.9093 64.4879 78.0117 64.1064C79.1141 63.7249 80.0859 63.039 80.8146 62.1281C81.5433 61.2172 81.9991 60.1185 82.1293 58.9593C82.2595 57.8001 82.0589 56.6277 81.5504 55.5778C81.0419 54.5279 80.2463 53.6436 79.256 53.027C78.2657 52.4105 77.1211 52.0871 75.9546 52.0941V52.1301ZM7.82685 4.605C7.82685 4.08657 8.0328 3.58937 8.39938 3.22279C8.76596 2.85621 9.26316 2.65026 9.78159 2.65026C10.3 2.65026 10.7972 2.85621 11.1638 3.22279C11.5304 3.58937 11.7363 4.08657 11.7363 4.605V77.3617H7.82685V4.605ZM51.7424 24.1283C51.6128 24.3372 51.5441 24.578 51.5441 24.8238C51.5441 25.0696 51.6128 25.3106 51.7424 25.5194L61.8278 41.8528H14.3747V7.8069H61.8278L51.7424 24.1283ZM72.6688 59.6252C72.3347 58.7775 72.3347 57.8346 72.6688 56.9869C72.9759 56.2076 73.5453 55.5599 74.2789 55.1555C75.0125 54.7511 75.8642 54.6153 76.6872 54.7716C77.5101 54.928 78.2528 55.3665 78.787 56.0118C79.3212 56.657 79.6135 57.4684 79.6135 58.3061C79.6135 59.1438 79.3212 59.9552 78.787 60.6004C78.2528 61.2456 77.5101 61.6842 76.6872 61.8405C75.8642 61.9969 75.0125 61.8611 74.2789 61.4567C73.5453 61.0523 72.9759 60.4046 72.6688 59.6252Z" fill="#66666A"/>
</g>
<defs>
<clipPath id="clip0_78_1340">
<rect width="81.8348" height="80" fill="white" transform="translate(0.307861)"/>
</clipPath>
</defs>
</svg>
