<svg width="80" height="80" viewBox="0 0 80 80" fill="none" xmlns="http://www.w3.org/2000/svg">
<g clip-path="url(#clip0_78_1337)">
<path d="M78.5471 23.148H69.9591V17.9155H75.3053C75.4696 17.9155 75.6323 17.8832 75.7841 17.8203C75.9359 17.7574 76.0739 17.6653 76.1901 17.5491C76.3063 17.4329 76.3984 17.2949 76.4613 17.1431C76.5241 16.9913 76.5565 16.8286 76.5565 16.6643V8.96346C76.5565 8.63161 76.4247 8.31337 76.1901 8.07872C75.9554 7.84406 75.6372 7.71221 75.3053 7.71221H72.5639V1.25125C72.5639 0.9194 72.4321 0.601125 72.1975 0.366471C71.9628 0.131817 71.6445 0 71.3127 0H25.4148C25.083 0 24.7647 0.131817 24.53 0.366471C24.2954 0.601125 24.1636 0.9194 24.1636 1.25125V8.96346C24.1636 9.29531 24.2954 9.61359 24.53 9.84824C24.7647 10.0829 25.083 10.2147 25.4148 10.2147H28.1676V15.4131H22.7871C22.4553 15.4131 22.137 15.5449 21.9024 15.7795C21.6677 16.0142 21.5359 16.3324 21.5359 16.6643V24.3651C21.5359 24.697 21.6677 25.0152 21.9024 25.2499C22.137 25.4845 22.4553 25.6164 22.7871 25.6164H31.3753V28.8924H30.3173C29.5325 28.8924 28.759 28.8924 28.0424 29.0061C27.3257 29.1199 26.4954 28.8924 25.7106 28.8924C18.9227 28.8924 12.4129 31.5888 7.61313 36.3886C2.8134 41.1883 0.116943 47.6981 0.116943 54.486C0.116943 61.2738 2.8134 67.7837 7.61313 72.5834C12.4129 77.3832 18.9227 80.0796 25.7106 80.0796C26.4954 80.0796 27.2802 80.0796 28.0424 79.9659C28.8045 79.8521 29.5893 80.0796 30.3173 80.0796C33.8305 80.0799 37.3059 79.3547 40.5258 77.9493C43.7456 76.5439 46.6406 74.4887 49.0292 71.9124H71.3127C71.477 71.9124 71.6398 71.88 71.7916 71.8172C71.9434 71.7543 72.0813 71.6621 72.1975 71.5459C72.3137 71.4297 72.4058 71.2918 72.4687 71.14C72.5315 70.9882 72.5639 70.8255 72.5639 70.6612V64.0978H75.3053C75.6372 64.0978 75.9554 63.966 76.1901 63.7314C76.4247 63.4967 76.5565 63.1784 76.5565 62.8466V55.1344C76.5565 54.8025 76.4247 54.4843 76.1901 54.2496C75.9554 54.015 75.6372 53.8831 75.3053 53.8831H72.5639V47.4335C72.5639 47.1017 72.4321 46.7834 72.1975 46.5488C71.9628 46.3141 71.6445 46.1823 71.3127 46.1823H68.5713V40.9839H71.3127C71.6445 40.9839 71.9628 40.8521 72.1975 40.6175C72.4321 40.3828 72.5639 40.0645 72.5639 39.7327V33.2717H78.5244C78.8562 33.2717 79.1745 33.1399 79.4091 32.9052C79.6438 32.6706 79.7757 32.3523 79.7757 32.0205V24.3196C79.7557 24.0057 79.6182 23.7108 79.3905 23.4936C79.1629 23.2765 78.8617 23.1531 78.5471 23.148ZM70.0842 38.5611H50.3374C48.7397 36.5573 46.8537 34.8016 44.7408 33.3513H70.0842V38.5611ZM70.0842 69.3758H51.0994C52.2656 67.762 53.2391 66.0174 54.0001 64.1775H70.0842V69.3758ZM45.4347 71.8783C44.0989 73.0437 42.6332 74.0514 41.0667 74.8813C42.2556 73.9745 43.3665 72.97 44.3881 71.8783C44.7635 71.4688 45.1275 71.0593 45.5256 70.627C45.9238 70.1948 46.1741 69.7967 46.4812 69.3758C47.6438 67.7617 48.6134 66.017 49.3704 64.1775C49.541 63.7566 49.7003 63.3471 49.8482 62.9262C49.996 62.5053 50.1325 62.0958 50.2577 61.675C50.7532 59.9761 51.0697 58.23 51.2019 56.4652C51.2019 56.0557 51.2018 55.6349 51.27 55.214C51.3383 54.7931 51.27 54.7249 51.27 54.4746C51.27 54.2244 51.27 54.1334 51.27 53.9627C51.2389 52.2125 51.0255 50.4703 50.6331 48.7644C50.5307 48.3435 50.4283 47.9227 50.3146 47.5132C50.2008 47.1037 50.0644 46.6714 49.9165 46.2619C49.3035 44.441 48.4829 42.6967 47.4708 41.0636C47.2092 40.6313 46.9249 40.2218 46.6405 39.8123C46.3561 39.4028 46.0262 38.9592 45.7077 38.5611C44.3839 36.8798 42.8554 35.3705 41.1577 34.068C43.3657 35.2366 45.3706 36.7538 47.0954 38.5611C47.4821 38.9706 47.8689 39.3687 48.2329 39.8123C48.5969 40.2559 48.8586 40.6313 49.1657 41.0636C50.3191 42.6682 51.2596 44.4155 51.9639 46.2619C52.1231 46.6714 52.2938 47.0923 52.4189 47.5132C52.544 47.934 52.6465 48.3435 52.7602 48.7644C53.1958 50.4643 53.4362 52.2084 53.4769 53.9627C53.4769 54.1334 53.4769 54.304 53.4769 54.4746C53.4769 54.6453 53.4769 54.9637 53.4769 55.214C53.4769 55.4642 53.4768 56.0557 53.4085 56.4652C53.2628 58.2375 52.9077 59.9862 52.3506 61.675C52.2027 62.0958 52.055 62.5053 51.8843 62.9262C51.7137 63.3471 51.5316 63.7566 51.3496 64.1775C50.4744 66.048 49.3578 67.7956 48.0282 69.3758C47.6528 69.8081 47.2775 70.2175 46.8907 70.627C46.504 71.0365 45.9011 71.4347 45.4347 71.8442V71.8783ZM2.60799 54.4746C2.61344 49.0569 4.52559 43.8138 8.00928 39.6646C11.493 35.5154 16.3259 32.7246 21.661 31.7816C22.5635 31.6206 23.4754 31.5181 24.391 31.4745C24.8119 31.4745 25.2442 31.4062 25.6764 31.4062C26.4613 31.4062 27.2462 31.4062 28.0083 31.52C29.0891 31.6431 30.1606 31.8369 31.216 32.1001L31.4094 32.157C35.5878 33.2014 39.3781 35.4242 42.3293 38.5611C42.7292 38.9588 43.1089 39.3764 43.4668 39.8123C43.8081 40.2104 44.1038 40.6313 44.4109 41.0636C45.5643 42.6682 46.505 44.4155 47.2092 46.2619C47.3685 46.6714 47.5276 47.0923 47.6641 47.5132C47.8006 47.934 47.8917 48.3435 48.0054 48.7644C48.4355 50.4654 48.6758 52.2088 48.7221 53.9627C48.7221 54.1334 48.7221 54.304 48.7221 54.4746C48.7221 54.6453 48.7221 54.9637 48.7221 55.214C48.7221 55.4642 48.722 56.0557 48.6537 56.4652C48.5025 58.2367 48.1476 59.9848 47.596 61.675C47.4481 62.0958 47.3002 62.5053 47.1295 62.9262C46.9589 63.3471 46.7769 63.7566 46.5836 64.1775C45.7126 66.0503 44.5955 67.7985 43.262 69.3758C42.898 69.8081 42.5227 70.2175 42.1245 70.627C41.7264 71.0365 41.2487 71.4688 40.7824 71.8783C37.2033 75 32.7444 76.9354 28.0197 77.4179C27.2451 77.4999 26.4667 77.5416 25.6878 77.543C24.341 77.5341 22.9975 77.4085 21.6724 77.1676C16.3373 76.2246 11.5044 73.4339 8.02067 69.2847C4.53697 65.1354 2.62483 59.8924 2.61938 54.4746H2.60799ZM74.0769 61.675H54.8304C55.3243 59.9752 55.6444 58.2297 55.7859 56.4652H73.9858L74.0769 61.675ZM70.0842 53.9627H55.8996C55.8684 52.2125 55.655 50.4703 55.2627 48.7644H70.0501L70.0842 53.9627ZM66.0916 46.2619H54.5574C53.9362 44.4424 53.112 42.6986 52.1004 41.0636H66.0916V46.2619ZM77.2959 30.8488H40.1339C38.1346 30.0271 36.0406 29.4578 33.9005 29.154V25.6505H77.2959V30.8488ZM26.6888 2.53663H70.0842V7.74634H26.6888V2.53663ZM30.6814 10.2488H74.0769V15.4472H30.6814V10.2488ZM24.1181 17.9155H67.5135V23.148H24.1181V17.9155Z" fill="#66666A"/>
<path d="M33.6958 71.8442C34.4813 71.4785 35.2414 71.0605 35.9708 70.5929C36.5755 70.2057 37.1601 69.7881 37.7225 69.3417C39.5063 67.888 41.0163 66.1276 42.1815 64.1433C42.4318 63.7338 42.6479 63.313 42.864 62.8921C43.0801 62.4712 43.2621 62.0617 43.4327 61.6408C44.1193 59.977 44.56 58.222 44.7409 56.4311C44.7409 56.0216 44.7408 55.6007 44.809 55.1799C44.8773 54.759 44.809 54.6908 44.809 54.4405C44.809 54.1903 44.809 54.0992 44.809 53.9286C44.7687 52.1654 44.4855 50.4161 43.9673 48.7303C43.8422 48.3094 43.6717 47.8885 43.5124 47.479C43.3532 47.0695 43.1597 46.6373 42.9663 46.2278C42.0544 44.308 40.8324 42.5517 39.3492 41.0294C38.9203 40.5888 38.4684 40.1711 37.9955 39.7782C37.472 39.3325 36.9253 38.9148 36.3575 38.5269C33.4812 36.5899 30.1297 35.4767 26.6661 35.3078C26.3362 35.3078 25.9949 35.251 25.6537 35.251H25.4149C24.994 35.251 24.5845 35.251 24.1636 35.3192C21.3685 35.5358 18.6548 36.3629 16.2141 37.7422C13.7733 39.1215 11.6649 41.0195 10.0374 43.3023C8.40996 45.5851 7.30312 48.1971 6.7949 50.9542C6.28668 53.7113 6.38936 56.5463 7.09594 59.2593C7.80251 61.9723 9.09577 64.4974 10.8843 66.6563C12.6728 68.8152 14.9132 70.5555 17.4474 71.7544C19.9816 72.9534 22.748 73.5817 25.5515 73.5953C28.355 73.6088 31.1274 73.0072 33.6731 71.8328L33.6958 71.8442ZM24.1864 37.8331C24.6073 37.8331 25.0167 37.7762 25.4376 37.7648H25.6765C26.0177 37.7648 26.359 37.7648 26.6888 37.8217C28.0404 37.8955 29.3776 38.1362 30.6701 38.5383C31.6958 38.8539 32.6867 39.2732 33.6275 39.7896C34.2968 40.1612 34.9392 40.5793 35.55 41.0408C37.4426 42.4276 39.0203 44.1992 40.1795 46.2391C40.407 46.6486 40.6232 47.0581 40.8166 47.4904C41.0086 47.8984 41.1794 48.3161 41.3284 48.7416C41.9411 50.4089 42.2792 52.1645 42.3294 53.94C42.3294 54.1106 42.3294 54.2812 42.3294 54.4519C42.3294 54.6225 42.3294 54.941 42.3294 55.1913C42.3294 55.4415 42.3294 56.033 42.2384 56.4425C42.0212 58.2512 41.506 60.0116 40.7141 61.6522C40.5093 62.0731 40.2819 62.494 40.043 62.9035C39.8041 63.313 39.5198 63.7452 39.2354 64.1547C37.6511 66.3529 35.5595 68.1362 33.1385 69.353C32.051 69.8955 30.9064 70.3152 29.726 70.6043C28.3917 70.9468 27.0199 71.1226 25.6423 71.1275C25.1759 71.1275 24.7096 71.1275 24.2432 71.0593C20.0749 70.7257 16.1844 68.8372 13.3437 65.7685C10.503 62.6999 8.91986 58.6754 8.9084 54.4938C8.89694 50.3121 10.4579 46.279 13.2818 43.1948C16.1056 40.1107 19.9858 38.2009 24.1522 37.8445L24.1864 37.8331Z" fill="#66666A"/>
<path d="M31.4208 50.9029H33.218V59.1383C33.218 59.4506 33.342 59.75 33.5628 59.9708C33.7836 60.1916 34.0831 60.3156 34.3954 60.3156C34.7076 60.3156 35.007 60.1916 35.2278 59.9708C35.4486 59.75 35.5726 59.4506 35.5726 59.1383V50.9029H37.3357C37.6374 50.9029 37.9268 50.783 38.1401 50.5697C38.3535 50.3564 38.4732 50.067 38.4732 49.7654C38.4738 49.5607 38.4192 49.3598 38.3151 49.1836C38.211 49.0074 38.0612 48.8626 37.8817 48.7644C37.7073 48.6562 37.5068 48.5972 37.3016 48.5938H31.4208C31.2156 48.5972 31.0151 48.6562 30.8407 48.7644C30.6591 48.8611 30.507 49.0053 30.4008 49.1816C30.2946 49.3578 30.2383 49.5596 30.2378 49.7654C30.2377 49.9187 30.2685 50.0704 30.3285 50.2114C30.3885 50.3525 30.4764 50.48 30.5869 50.5862C30.6974 50.6925 30.8282 50.7753 30.9715 50.8297C31.1148 50.8841 31.2677 50.909 31.4208 50.9029Z" fill="#66666A"/>
<path d="M13.5848 60.3214C13.8865 60.3214 14.1758 60.2016 14.3892 59.9883C14.6025 59.775 14.7223 59.4856 14.7223 59.184V54.7591L17.2021 59.7186C17.2959 59.9157 17.4445 60.0816 17.63 60.1966C17.8156 60.3115 18.0302 60.3707 18.2485 60.367C18.3392 60.3779 18.4308 60.3779 18.5215 60.367C18.7823 60.3138 19.0163 60.1708 19.1826 59.963C19.3488 59.7552 19.4369 59.4956 19.4315 59.2295V49.8224C19.4315 49.5101 19.3075 49.2107 19.0868 48.9899C18.866 48.7691 18.5664 48.6451 18.2542 48.6451C17.9419 48.6451 17.6425 48.7691 17.4217 48.9899C17.201 49.2107 17.077 49.5101 17.077 49.8224V54.2472L14.5972 49.2991C14.5278 48.9974 14.3414 48.7357 14.079 48.5714C13.8166 48.4072 13.4998 48.3539 13.1981 48.4233C12.8964 48.4926 12.6346 48.679 12.4703 48.9414C12.3061 49.2038 12.2528 49.5207 12.3222 49.8224V59.2295C12.3275 59.3861 12.3651 59.54 12.4327 59.6814C12.5003 59.8228 12.5963 59.9488 12.7149 60.0513C12.8334 60.1538 12.972 60.2308 13.1217 60.2773C13.2714 60.3237 13.429 60.3388 13.5848 60.3214Z" fill="#66666A"/>
<path d="M22.9806 60.3213C23.2822 60.3213 23.5716 60.2015 23.7849 59.9882C23.9983 59.7748 24.118 59.4855 24.118 59.1838V55.6576H25.7901C25.9629 55.6585 26.1336 55.6201 26.2893 55.5452C26.445 55.4703 26.5817 55.3609 26.6888 55.2254C26.8691 55.0209 26.97 54.7585 26.9732 54.486C26.9666 54.3086 26.9241 54.1345 26.8481 53.9741C26.796 53.859 26.7226 53.7548 26.6319 53.667C26.5245 53.5512 26.3942 53.4591 26.2493 53.3964C26.1044 53.3337 25.948 53.3019 25.7901 53.303H24.1294V50.9029H27.6443C27.9459 50.9029 28.2353 50.783 28.4486 50.5697C28.662 50.3564 28.7817 50.0671 28.7817 49.7654C28.7823 49.5607 28.7277 49.3598 28.6236 49.1836C28.5195 49.0074 28.3697 48.8626 28.1902 48.7644C28.0158 48.6562 27.8153 48.5972 27.6101 48.5938H22.9806C22.7753 48.5972 22.5749 48.6562 22.4004 48.7644C22.2209 48.8626 22.0712 49.0074 21.9671 49.1836C21.863 49.3598 21.8083 49.5607 21.8089 49.7654V59.1725C21.8073 59.3257 21.8367 59.4777 21.8953 59.6193C21.9539 59.7609 22.0405 59.8892 22.1499 59.9965C22.2594 60.1038 22.3893 60.1879 22.5321 60.2437C22.6748 60.2995 22.8274 60.3259 22.9806 60.3213Z" fill="#66666A"/>
</g>
<defs>
<clipPath id="clip0_78_1337">
<rect width="79.6929" height="80" fill="white" transform="translate(0.105469)"/>
</clipPath>
</defs>
</svg>
