<svg width="46" height="80" viewBox="0 0 46 80" fill="none" xmlns="http://www.w3.org/2000/svg">
<g clip-path="url(#clip0_78_1338)">
<path d="M43.9446 38.4846H32.4486C33.0425 38.1026 33.5966 37.6621 34.1026 37.1696C38.2121 33.0601 37.4724 25.8687 37.4415 25.5707C37.4415 25.4988 37.4415 25.4475 37.4415 25.3858C37.4415 25.3242 37.4415 25.2831 37.3901 25.2317C37.3385 25.1046 37.2618 24.989 37.1648 24.892C37.0677 24.795 36.9522 24.7183 36.825 24.6667H36.671C36.6152 24.64 36.5566 24.6193 36.4963 24.605C36.1881 24.605 29.0069 23.8242 24.8872 27.9439C24.4709 28.3725 24.0928 28.8366 23.7571 29.3308V26.0331C27.0988 25.7418 30.199 24.1719 32.4113 21.6505C34.6235 19.1292 35.7771 15.8512 35.6314 12.5001C35.4856 9.14893 34.0518 5.98344 31.6289 3.6637C29.2061 1.34396 25.9814 0.0490723 22.6271 0.0490723C19.2728 0.0490723 16.048 1.34396 13.6252 3.6637C11.2024 5.98344 9.76849 9.14893 9.62274 12.5001C9.477 15.8512 10.6306 19.1292 12.8429 21.6505C15.0552 24.1719 18.1554 25.7418 21.497 26.0331V29.3308C21.1682 28.8343 20.7933 28.37 20.3772 27.9439C16.2678 23.8345 9.07629 24.5742 8.76808 24.605L8.5831 24.6667H8.43926C8.31229 24.7186 8.19706 24.7955 8.10027 24.8927C8.00344 24.992 7.92363 25.1065 7.864 25.2317C7.864 25.2831 7.864 25.3344 7.864 25.3858C7.864 25.4372 7.864 25.4988 7.864 25.5707C7.864 25.8687 7.08321 33.0499 11.2029 37.1696C11.7089 37.6621 12.263 38.1026 12.8569 38.4846H1.3609C1.06118 38.4846 0.773726 38.6036 0.561794 38.8156C0.349861 39.0275 0.230713 39.3149 0.230713 39.6146V49.5389C0.233394 49.8378 0.353324 50.1237 0.564678 50.335C0.776032 50.5464 1.06201 50.6663 1.3609 50.669H3.10735L6.37439 72.4386H3.74431C3.44637 72.4413 3.16156 72.5616 2.95184 72.7732C2.74213 72.9848 2.62451 73.2707 2.62453 73.5687C2.62768 75.0868 3.16778 76.5549 4.14925 77.7131C5.13072 78.8713 6.49024 79.645 7.98728 79.8972C8.12122 79.951 8.26419 79.9789 8.40853 79.9793H36.897C37.0413 79.9779 37.1841 79.9501 37.3183 79.8972C38.8319 79.6598 40.2111 78.8897 41.2075 77.7257C42.2038 76.5618 42.7518 75.0803 42.7529 73.5481C42.7529 73.2484 42.6339 72.961 42.4219 72.749C42.21 72.5371 41.9225 72.418 41.6228 72.418H39.003L42.2701 50.6484H44.0165C44.3144 50.6457 44.5993 50.5255 44.809 50.3138C45.0187 50.1022 45.1364 49.8163 45.1364 49.5183V39.5941C45.1353 39.4417 45.1031 39.2911 45.0417 39.1515C44.9804 39.0119 44.8912 38.8864 44.7796 38.7825C44.668 38.6786 44.5364 38.5986 44.3929 38.5474C44.2493 38.4961 44.0968 38.4748 43.9446 38.4846ZM38.2121 77.2466C37.8357 77.4486 37.4301 77.5907 37.01 77.6678C36.7625 77.7126 36.5116 77.7367 36.2601 77.7397H8.90164C8.65008 77.7367 8.39924 77.7126 8.15169 77.6678C7.73157 77.5907 7.32599 77.4486 6.94964 77.2466C6.45088 76.9854 6.01113 76.6244 5.65768 76.1861C5.30422 75.7478 5.04461 75.2416 4.89494 74.6988H40.2668C40.1218 75.238 39.8684 75.742 39.5222 76.18C39.176 76.6181 38.7442 76.981 38.2531 77.2466H38.2121ZM8.51124 72.4386L5.2442 50.669H39.9174L36.6505 72.4386H8.51124ZM40.2565 48.4088H2.34712V40.7447H42.8146V48.4088H40.2565ZM18.6821 29.5055C20.6649 31.478 21.2402 34.5087 21.384 36.697L11.5112 26.8344C13.7508 26.9474 16.7814 27.5022 18.7642 29.5569L18.6821 29.5055ZM33.5581 26.8036L23.6956 36.6661C23.8394 34.5087 24.4147 31.5294 26.3975 29.4747C28.3803 27.42 31.4828 26.9474 33.6711 26.8036H33.5581ZM35.1607 28.4062C35.0169 30.5637 34.4416 33.543 32.4588 35.5977C30.476 37.6524 27.4556 38.1558 25.2673 38.2996L35.1607 28.4062ZM19.7504 38.2688C17.593 38.1353 14.6137 37.56 12.559 35.5669C10.5042 33.5738 10.0111 30.5637 9.86729 28.3754L19.7504 38.2688ZM22.5038 2.31146C24.6341 2.30942 26.7172 2.93942 28.4893 4.12169C30.2615 5.30397 31.643 6.98538 32.4592 8.95315C33.2753 10.9209 33.4894 13.0866 33.0743 15.1761C32.6592 17.2656 31.6335 19.1849 30.1272 20.6913C28.6208 22.1977 26.7015 23.2233 24.612 23.6384C22.5226 24.0535 20.3569 23.8394 18.3891 23.0232C16.4213 22.2071 14.7399 20.8255 13.5576 19.0534C12.3753 17.2812 11.7454 15.1982 11.7474 13.0678C11.7433 11.6422 12.0221 10.2299 12.5676 8.91274C13.1131 7.59559 13.9146 6.39977 14.9256 5.39455C15.9365 4.38933 17.1368 3.59468 18.4571 3.05664C19.7773 2.5186 21.1912 2.24785 22.6168 2.26009L22.5038 2.31146Z" fill="#66666A"/>
<path d="M19.4421 16.6842C19.1424 16.6842 18.8549 16.8033 18.643 17.0152C18.431 17.2272 18.312 17.5146 18.312 17.8143C18.312 18.114 18.431 18.4015 18.643 18.6134C18.8549 18.8254 19.1424 18.9444 19.4421 18.9444H21.4968V19.9718C21.4968 20.2715 21.6158 20.5589 21.8277 20.7709C22.0397 20.9828 22.3271 21.1019 22.6268 21.1019C22.9266 21.1019 23.214 20.9828 23.426 20.7709C23.6379 20.5589 23.7569 20.2715 23.7569 19.9718V18.9444C24.637 18.8769 25.4592 18.4795 26.059 17.8319C26.6589 17.1843 26.9921 16.3341 26.9921 15.4514C26.9921 14.5687 26.6589 13.7185 26.059 13.0709C25.4592 12.4233 24.637 12.026 23.7569 11.9584V9.39002H25.8116C26.1113 9.39002 26.3988 9.27096 26.6107 9.05903C26.8227 8.8471 26.9417 8.55966 26.9417 8.25994C26.9417 7.96022 26.8227 7.67278 26.6107 7.46085C26.3988 7.24891 26.1113 7.12984 25.8116 7.12984H23.7569V6.10249C23.7569 5.80277 23.6379 5.51533 23.426 5.3034C23.214 5.09147 22.9266 4.97241 22.6268 4.97241C22.3271 4.97241 22.0397 5.09147 21.8277 5.3034C21.6158 5.51533 21.4968 5.80277 21.4968 6.10249V7.12984C20.6357 7.22338 19.8394 7.63168 19.261 8.27637C18.6825 8.92105 18.3627 9.7567 18.3627 10.6229C18.3627 11.489 18.6825 12.3246 19.261 12.9693C19.8394 13.614 20.6357 14.0223 21.4968 14.1158V16.6842H19.4421ZM24.6713 15.4206C24.6708 15.6936 24.5799 15.9587 24.4125 16.1743C24.2452 16.39 24.0109 16.5441 23.7466 16.6123V14.2186C24.0109 14.2904 24.2444 14.4468 24.4114 14.6639C24.5784 14.881 24.6696 15.1467 24.6713 15.4206ZM20.5619 10.6229C20.5617 10.3512 20.6512 10.0872 20.8166 9.87165C20.9819 9.65615 21.2138 9.50129 21.4762 9.43112V11.8249C21.2158 11.7493 20.9868 11.5913 20.8238 11.3745C20.6608 11.1578 20.5725 10.894 20.5721 10.6229H20.5619Z" fill="#66666A"/>
</g>
<defs>
<clipPath id="clip0_78_1338">
<rect width="44.9775" height="80" fill="white" transform="translate(0.12793)"/>
</clipPath>
</defs>
</svg>
