<svg width="77" height="80" viewBox="0 0 77 80" fill="none" xmlns="http://www.w3.org/2000/svg">
<g clip-path="url(#clip0_78_1341)">
<path d="M76.2556 11.3448C76.1851 11.1399 76.0586 10.9588 75.8905 10.822C75.7223 10.6853 75.5191 10.5983 75.3041 10.5711L68.9259 9.76596L66.5523 7.38196L65.7471 1.0037C65.7169 0.790952 65.6289 0.590621 65.4924 0.424638C65.3559 0.258655 65.1763 0.133427 64.9734 0.0626548C64.7707 -0.00655239 64.5526 -0.017766 64.3439 0.0302665C64.1351 0.078299 63.9439 0.183663 63.7919 0.334509L55.3119 8.81445C47.4969 4.0553 38.1664 2.44089 29.2067 4.29757C20.2469 6.15426 12.3264 11.3435 7.04618 18.8164C1.76593 26.2892 -0.480137 35.4881 0.76215 44.5534C2.00444 53.6188 6.64233 61.8744 13.7383 67.6512L10.4446 75.5561C10.128 76.3416 10.1326 77.22 10.4572 78.0022C10.7818 78.7845 11.4006 79.408 12.1803 79.7385C12.5746 79.9028 12.9975 79.9881 13.4247 79.9895C14.0626 79.9919 14.6867 79.8042 15.2175 79.4504C15.7482 79.0965 16.1615 78.5926 16.4046 78.0028L19.1963 71.3213C24.5289 74.2642 30.5204 75.8077 36.6111 75.8077C42.7018 75.8077 48.6933 74.2642 54.0258 71.3213L56.8177 78.0028C57.0608 78.5926 57.4741 79.0965 58.0048 79.4504C58.5356 79.8042 59.1598 79.9919 59.7977 79.9895C60.2248 79.9881 60.6475 79.9028 61.0419 79.7385C61.8216 79.408 62.4405 78.7845 62.7651 78.0022C63.0898 77.22 63.0942 76.3416 62.7776 75.5561L59.4839 67.6512C66.2172 62.1525 70.7369 54.4061 72.2106 45.8386C73.6843 37.2712 72.0128 28.4597 67.5038 21.0272L75.9733 12.5473C76.1288 12.3938 76.2377 12.1995 76.2877 11.9867C76.3376 11.774 76.3265 11.5515 76.2556 11.3448V11.3448ZM60.1531 77.6264C60.0407 77.6742 59.9199 77.6991 59.7977 77.6996C59.6755 77.7002 59.5543 77.6765 59.4414 77.6298C59.3285 77.583 59.2261 77.5143 59.1401 77.4275C59.054 77.3408 58.986 77.2378 58.9402 77.1245L56.023 70.1398C56.5598 69.7912 57.0826 69.4427 57.5914 69.0942L60.655 76.4135C60.7486 76.6409 60.7484 76.8962 60.6544 77.1235C60.5603 77.3508 60.3801 77.5316 60.1531 77.6264V77.6264ZM57.6332 66.1246L56.6817 66.8565C56.1799 67.2329 55.6361 67.5885 55.1238 67.9021L54.1408 68.54C53.8167 68.7387 53.4717 68.9269 53.0952 69.1151C48.0496 71.953 42.3583 73.4437 36.5694 73.4437C30.7804 73.4437 25.089 71.953 20.0434 69.1151C19.7088 68.9269 19.3637 68.7387 18.9977 68.54L18.0149 67.9021C17.4817 67.5571 16.9692 67.2016 16.4568 66.8565C16.1327 66.616 15.8191 66.3756 15.5159 66.1246C15.2127 65.8737 14.8885 65.6227 14.5853 65.3613C8.12964 59.8738 3.97078 52.1616 2.93277 43.7527C1.89476 35.3437 4.05337 26.8516 8.9808 19.959C13.9082 13.0664 21.2449 8.27619 29.5374 6.53746C37.8298 4.79872 46.4728 6.23834 53.754 10.5711C53.7382 10.6751 53.7382 10.7808 53.754 10.8848L54.5382 17.0957L52.9907 18.6432C47.6512 14.4698 40.9244 12.4834 34.1743 13.0869C27.4243 13.6904 21.1565 16.8387 16.642 21.8931C12.1276 26.9475 9.70465 33.5298 9.86444 40.3049C10.0242 47.0799 12.7548 53.5406 17.5025 58.3766L18.3913 59.234L19.301 60.0391C19.7924 60.4574 20.3466 60.8547 20.8171 61.2311L21.7791 61.9108L22.7619 62.5381C26.9207 65.0424 31.6834 66.3657 36.538 66.3657C41.3925 66.3657 46.1551 65.0424 50.3139 62.5381L51.2968 61.9108L52.2588 61.2311C52.7816 60.8547 53.3044 60.4574 53.7749 60.0391L54.6846 59.234L55.5733 58.3766C60.129 53.7617 62.8437 47.6426 63.2075 41.1681C63.5714 34.6936 61.5595 28.3089 57.5496 23.2126L59.0971 21.6651L65.3081 22.4493H65.4545C65.4545 22.4493 65.5589 22.4493 65.6217 22.4493C69.6924 29.2966 71.2085 37.3636 69.9014 45.2216C68.5943 53.0796 64.5484 60.2214 58.4802 65.3822L57.6332 66.1246ZM13.0691 77.6264C12.8421 77.5316 12.6619 77.3508 12.5678 77.1235C12.4738 76.8962 12.4736 76.6409 12.5672 76.4135L15.6309 69.0942C16.1398 69.4566 16.6626 69.8052 17.1993 70.1398L14.282 77.1245C14.2362 77.2378 14.1683 77.3408 14.0823 77.4275C13.9962 77.5143 13.8937 77.583 13.7808 77.6298C13.6679 77.6765 13.5469 77.7002 13.4247 77.6996C13.3025 77.6991 13.1815 77.6742 13.0691 77.6264V77.6264ZM57.2777 10.1424L63.7501 3.65957L64.2415 7.5388L59.7558 12.0349L58.9506 12.8296L58.1247 13.6556L56.6713 15.1091L56.3157 12.2754L56.1799 11.2298L56.4621 10.9475L57.2777 10.1424ZM34.7865 41.5108C35.3959 42.1142 36.2189 42.4524 37.0765 42.4519C37.4997 42.453 37.9189 42.3705 38.3101 42.209C38.7013 42.0475 39.0567 41.8102 39.3558 41.5108L40.9452 39.9215L41.8235 39.0432L42.1058 38.7609C42.1635 39.0678 42.1949 39.3791 42.1999 39.6915C42.1999 39.7646 42.1999 39.8169 42.1999 39.8901C42.1522 41.1584 41.6739 42.3727 40.8437 43.3327C40.0135 44.2927 38.881 44.9413 37.6328 45.1714C36.3847 45.4016 35.0953 45.1996 33.9773 44.5988C32.8593 43.998 31.9792 43.0342 31.4823 41.8663C31.2293 41.2369 31.0878 40.5681 31.0642 39.8901C31.0642 39.8169 31.0642 39.7646 31.0642 39.6915C31.0805 38.2157 31.674 36.8049 32.7176 35.7613C33.7612 34.7177 35.1719 34.1242 36.6477 34.1079C36.9601 34.1122 37.2715 34.1437 37.5783 34.202L34.8284 36.9519C34.22 37.5519 33.8741 38.3684 33.8662 39.2227C33.8584 40.0771 34.1893 40.8998 34.7865 41.5108V41.5108ZM36.6059 31.8075C34.8955 31.815 33.2335 32.3762 31.8688 33.4073C30.5041 34.4384 29.5101 35.8838 29.0356 37.527C28.9295 37.9045 28.8491 38.2888 28.7951 38.6772C28.7483 39.0238 28.7239 39.3731 28.722 39.7228C28.7216 40.4301 28.82 41.134 29.0147 41.8141C29.1585 42.3494 29.3583 42.8681 29.6108 43.3616C29.8272 43.7754 30.0828 44.1675 30.374 44.5327C31.1071 45.4909 32.051 46.2674 33.1327 46.8019C34.2144 47.3363 35.4046 47.6143 36.6111 47.6143C37.8176 47.6143 39.0078 47.3363 40.0895 46.8019C41.1712 46.2674 42.1153 45.4909 42.8483 44.5327C43.1395 44.1675 43.3951 43.7754 43.6116 43.3616C43.864 42.8681 44.0637 42.3494 44.2075 41.8141C44.4022 41.134 44.5008 40.4301 44.5003 39.7228C44.4984 39.3731 44.4739 39.0238 44.427 38.6772C44.3731 38.2888 44.2927 37.9045 44.1866 37.527C44.1238 37.3179 44.0507 37.0983 43.9775 36.8997L44.8662 36.0004L49.237 31.6298C50.5717 33.6989 51.3718 36.0671 51.5652 38.5217C51.7587 40.9764 51.3394 43.4406 50.3453 45.6933C50.1461 46.1596 49.9191 46.6135 49.6656 47.0526C49.4355 47.4569 49.1846 47.8542 48.9128 48.2446C48.5112 48.8205 48.0674 49.3658 47.5848 49.8757C47.306 50.1825 47.0133 50.4752 46.7065 50.7541C46.4033 51.0259 46.1001 51.2873 45.7864 51.5278C43.1655 53.5738 39.936 54.6851 36.6111 54.6851C33.2862 54.6851 30.0566 53.5738 27.4358 51.5278C27.1221 51.2873 26.8189 51.0259 26.5157 50.7541C26.2124 50.4822 25.9197 50.179 25.6374 49.8757C25.1548 49.3658 24.7109 48.8205 24.3094 48.2446C24.0376 47.8612 23.7866 47.4639 23.5566 47.0526C21.9089 44.1418 21.2832 40.7632 21.7794 37.4554C22.2755 34.1476 23.865 31.1012 26.2942 28.8019C28.7234 26.5027 31.8524 25.083 35.1824 24.7693C38.5125 24.4555 41.8518 25.2658 44.6676 27.0709L39.4396 32.299C38.5332 31.9636 37.5721 31.8004 36.6059 31.818V31.8075ZM36.6059 22.397C32.0208 22.4025 27.6251 24.2264 24.3829 27.4685C21.1408 30.7107 19.317 35.1064 19.3115 39.6915C19.3117 42.7766 20.1462 45.8042 21.7268 48.4537C21.9673 48.8615 22.2077 49.2484 22.4796 49.6353C22.7515 50.0221 23.0024 50.3567 23.2847 50.6809C23.7155 51.2022 24.1802 51.6947 24.6755 52.1552C24.9683 52.4375 25.261 52.7198 25.5747 52.9812C25.8884 53.2426 26.202 53.4622 26.5261 53.6922C29.4588 55.8188 32.9886 56.9639 36.6111 56.9639C40.2336 56.9639 43.7634 55.8188 46.6961 53.6922C47.0202 53.4622 47.3339 53.2322 47.6476 52.9812C47.9613 52.7303 48.2541 52.4375 48.5468 52.1552C49.0421 51.6947 49.5067 51.2022 49.9375 50.6809C50.2198 50.3358 50.4812 49.9803 50.7426 49.6353C51.004 49.2902 51.2549 48.8615 51.4954 48.4537C53.1621 45.641 53.9905 42.4106 53.883 39.1429C53.7756 35.8752 52.7368 32.7063 50.889 30.0091L55.9811 24.9169C59.4576 29.4476 61.2305 35.0563 60.9897 40.7619C60.7488 46.4676 58.5096 51.907 54.6637 56.1285C54.3813 56.4422 54.0991 56.735 53.7958 57.0382C53.4926 57.3414 53.2103 57.6028 52.9071 57.8747C52.4261 58.3139 51.9242 58.7216 51.4118 59.119C51.0981 59.3595 50.7739 59.5895 50.4498 59.8091C50.1257 60.0287 49.812 60.2482 49.4774 60.4574C45.6133 62.8632 41.1525 64.1384 36.6006 64.1384C32.0488 64.1384 27.588 62.8632 23.7239 60.4574C23.3998 60.2482 23.0651 60.0391 22.7515 59.8091C22.4378 59.5791 22.1033 59.3595 21.7896 59.119C21.2772 58.7216 20.7439 58.3139 20.2943 57.8747C19.9911 57.6028 19.6983 57.3205 19.4055 57.0382C19.1128 56.7559 18.82 56.4422 18.5377 56.1285C14.4232 51.6259 12.1456 45.7447 12.1543 39.6452C12.163 33.5458 14.4573 27.6711 18.5846 23.1802C22.7119 18.6893 28.3724 15.9083 34.4494 15.3858C40.5264 14.8634 46.5786 16.6375 51.4118 20.358L46.3301 25.4397C43.4681 23.4727 40.0787 22.4158 36.6059 22.4074V22.397ZM62.7462 14.8372L61.9411 15.6423L61.1256 16.4684L57.9155 19.6679L56.0961 21.4873L55.2805 22.3029L54.4755 23.1185L49.4251 28.1583L48.62 28.9739L47.8045 29.779L42.7646 34.8189L41.9489 35.6345L41.123 36.4605L37.7038 39.8901C37.5266 40.0601 37.2906 40.155 37.0451 40.155C36.7995 40.155 36.5635 40.0601 36.3863 39.8901C36.2997 39.8037 36.2309 39.701 36.184 39.588C36.1371 39.4749 36.1131 39.3538 36.1131 39.2314C36.1131 39.109 36.1371 38.9878 36.184 38.8748C36.2309 38.7618 36.2997 38.6591 36.3863 38.5727L39.8055 35.1535L40.6315 34.3275L41.4575 33.5014L46.487 28.472L47.3025 27.6564L48.1181 26.8409L53.158 21.801L53.9735 20.9854L54.7891 20.1803L56.598 18.3609L59.7977 15.1509L60.6237 14.3248L61.4288 13.5302L65.4126 9.53592L66.7301 10.8534L62.7462 14.8372ZM65.3603 19.8457L65.0779 20.128L64.0323 19.9921L61.1883 19.6366L62.6417 18.1832L63.4678 17.3571L64.2729 16.552L68.769 12.0559L72.6483 12.5473L66.1654 19.0301L65.3603 19.8457Z" fill="#66666A"/>
</g>
<defs>
<clipPath id="clip0_78_1341">
<rect width="75.8175" height="80" fill="white" transform="translate(0.490234)"/>
</clipPath>
</defs>
</svg>
