<svg width="100" height="80" viewBox="0 0 100 80" fill="none" xmlns="http://www.w3.org/2000/svg">
<g clip-path="url(#clip0_78_1339)">
<path d="M88.2071 -0.000121595H14.9147C12.0216 0.00671588 9.24911 1.15991 7.20458 3.20686C5.16006 5.2538 4.01027 8.02763 4.00685 10.9207V18.5847H1.52538C1.14833 18.5847 0.786711 18.7345 0.5201 19.0011C0.25349 19.2677 0.10376 19.6293 0.10376 20.0064V26.6364C0.10376 27.0134 0.25349 27.375 0.5201 27.6416C0.786711 27.9083 1.14833 28.058 1.52538 28.058H3.96804V46.7333H1.52538C1.14833 46.7333 0.786711 46.8831 0.5201 47.1497C0.25349 47.4163 0.10376 47.7779 0.10376 48.155V54.785C0.10376 55.1621 0.25349 55.5237 0.5201 55.7903C0.786711 56.0569 1.14833 56.2067 1.52538 56.2067H3.96804V63.8835C3.97399 66.6752 5.04882 69.3586 6.97172 71.3825C8.89462 73.4063 11.5196 74.617 14.3073 74.7656V78.5782C14.3073 78.7649 14.3441 78.9498 14.4155 79.1223C14.487 79.2947 14.5916 79.4515 14.7236 79.5835C14.8557 79.7155 15.0125 79.8202 15.1849 79.8917C15.3574 79.9631 15.5422 79.9999 15.7289 79.9999H28.7435C29.1206 79.9999 29.4821 79.8501 29.7487 79.5835C30.0153 79.3169 30.1652 78.9553 30.1652 78.5782V74.7915H72.9956V78.5782C72.9956 78.7649 73.0323 78.9498 73.1038 79.1223C73.1752 79.2947 73.2799 79.4515 73.4119 79.5835C73.5439 79.7155 73.7006 79.8202 73.873 79.8917C74.0455 79.9631 74.2305 79.9999 74.4172 79.9999H87.4316C87.6183 79.9999 87.8033 79.9631 87.9758 79.8917C88.1483 79.8202 88.3049 79.7155 88.4369 79.5835C88.5689 79.4515 88.6737 79.2947 88.7452 79.1223C88.8166 78.9498 88.8533 78.7649 88.8533 78.5782V74.7656C91.641 74.617 94.2659 73.4063 96.1888 71.3825C98.1117 69.3586 99.1866 66.6752 99.1925 63.8835V10.8949C99.1874 9.45794 98.8992 8.0361 98.3442 6.71065C97.7892 5.3852 96.9785 4.18216 95.9582 3.17029C94.9379 2.15843 93.7282 1.35759 92.3982 0.813588C91.0682 0.269586 89.644 -0.00692464 88.2071 -0.000121595ZM96.2846 63.8835C96.2812 66.0236 95.4286 68.0749 93.9142 69.5869C92.3997 71.0989 90.3471 71.9482 88.2071 71.9482H14.9147C12.7769 71.9448 10.7276 71.094 9.21592 69.5823C7.70425 68.0706 6.85351 66.0214 6.85009 63.8835V56.2067H14.2944V63.0823C14.2944 63.4593 14.4441 63.8209 14.7107 64.0875C14.9773 64.3541 15.3389 64.5039 15.716 64.5039H87.4187C87.7957 64.5039 88.1574 64.3541 88.424 64.0875C88.6906 63.8209 88.8405 63.4593 88.8405 63.0823V11.7608C88.8405 11.3837 88.6906 11.0221 88.424 10.7555C88.1574 10.4889 87.7957 10.3391 87.4187 10.3391H15.7419C15.3648 10.3391 15.0032 10.4889 14.7366 10.7555C14.47 11.0221 14.3202 11.3837 14.3202 11.7608V18.6364H6.87596V10.9724C6.87596 8.83236 7.72518 6.77977 9.23722 5.26531C10.7493 3.75085 12.8005 2.8983 14.9406 2.89488H88.2329C90.3752 2.89488 92.4298 3.7459 93.9446 5.26073C95.4595 6.77557 96.3105 8.83012 96.3105 10.9724L96.2846 63.8835ZM85.9453 77.1566H75.7741V74.7915H85.9453V77.1566ZM27.2572 77.1566H17.086V74.7915H27.3735L27.2572 77.1566ZM2.93406 49.5766H18.1069V53.3634H2.93406V49.5766ZM2.93406 21.428H18.1069V25.2148H2.93406V21.428ZM17.086 56.2067H19.6191C19.9961 56.2067 20.3577 56.0569 20.6244 55.7903C20.891 55.5237 21.0407 55.1621 21.0407 54.785V48.155C21.0373 47.779 20.8864 47.4193 20.6206 47.1535C20.3547 46.8876 19.9951 46.7367 19.6191 46.7333H17.1764V28.058H19.6191C19.9961 28.058 20.3577 27.9083 20.6244 27.6416C20.891 27.375 21.0407 27.0134 21.0407 26.6364V20.0064C21.0373 19.6304 20.8864 19.2707 20.6206 19.0048C20.3547 18.7389 19.9951 18.5881 19.6191 18.5847H17.1764V13.1307H86.0359V61.6606H17.1764L17.086 56.2067ZM6.74675 28.058H14.191V46.7333H6.74675V28.058Z" fill="#66666A"/>
<path d="M66.7662 33.1631H65.4738C65.2085 32.268 64.8535 31.402 64.4141 30.5783L65.3705 29.6219C66.1146 28.8182 66.5188 27.7577 66.4983 26.6626C66.4779 25.5675 66.0345 24.5228 65.2608 23.7475C64.4872 22.9721 63.4434 22.5264 62.3483 22.5036C61.2533 22.4808 60.1919 22.8827 59.3866 23.6251L58.4173 24.5815C57.5926 24.1442 56.7268 23.7893 55.8325 23.5217V22.2293C55.8325 21.105 55.3859 20.0268 54.5909 19.2318C53.7959 18.4368 52.7176 17.9902 51.5934 17.9902C50.4691 17.9902 49.3908 18.4368 48.5958 19.2318C47.8009 20.0268 47.3542 21.105 47.3542 22.2293V23.5217C46.4612 23.7928 45.5957 24.1476 44.7694 24.5815L43.8131 23.6251C43.0052 22.854 41.9315 22.4238 40.8147 22.4238C39.698 22.4238 38.6241 22.854 37.8163 23.6251C37.4224 24.0188 37.11 24.4862 36.8968 25.0007C36.6836 25.5152 36.5739 26.0666 36.5739 26.6235C36.5739 27.1804 36.6836 27.7318 36.8968 28.2463C37.11 28.7608 37.4224 29.2282 37.8163 29.6219L38.7856 30.5783C38.342 31.4016 37.9827 32.2676 37.7129 33.1631H36.4205C35.2963 33.1631 34.218 33.6097 33.423 34.4047C32.628 35.1997 32.1814 36.2779 32.1814 37.4022C32.1814 38.5264 32.628 39.6047 33.423 40.3997C34.218 41.1947 35.2963 41.6413 36.4205 41.6413H37.7129C37.9795 42.5379 38.339 43.4042 38.7856 44.2261L37.8163 45.1825C37.4225 45.5762 37.1102 46.0437 36.8971 46.5581C36.684 47.0726 36.5743 47.624 36.5743 48.1808C36.5743 48.7377 36.684 49.2891 36.8971 49.8036C37.1102 50.318 37.4225 50.7855 37.8163 51.1792C38.21 51.573 38.6775 51.8853 39.192 52.0984C39.7064 52.3115 40.2579 52.4212 40.8147 52.4212C41.3716 52.4212 41.9229 52.3115 42.4374 52.0984C42.9518 51.8853 43.4193 51.573 43.8131 51.1792L44.7694 50.2228C45.5932 50.6622 46.4592 51.0173 47.3542 51.2826V52.6397C47.3542 53.7639 47.8009 54.8422 48.5958 55.6371C49.3908 56.4321 50.4691 56.8788 51.5934 56.8788C52.7176 56.8788 53.7959 56.4321 54.5909 55.6371C55.3859 54.8422 55.8325 53.7639 55.8325 52.6397V51.2826C56.7287 51.0205 57.595 50.6653 58.4173 50.2228L59.3866 51.1792C59.7792 51.5727 60.2455 51.885 60.7589 52.098C61.2723 52.311 61.8226 52.4206 62.3785 52.4206C62.9343 52.4206 63.4847 52.311 63.9981 52.098C64.5115 51.885 64.9779 51.5727 65.3705 51.1792C65.7644 50.7856 66.0769 50.3181 66.2901 49.8037C66.5033 49.2892 66.6129 48.7377 66.6129 48.1808C66.6129 47.6239 66.5033 47.0725 66.2901 46.558C66.0769 46.0436 65.7644 45.5761 65.3705 45.1825L64.4141 44.2261C64.8565 43.4038 65.2116 42.5375 65.4738 41.6413H66.7662C67.8905 41.6413 68.9688 41.1947 69.7637 40.3997C70.5587 39.6047 71.0053 38.5264 71.0053 37.4022C71.0053 36.2779 70.5587 35.1997 69.7637 34.4047C68.9688 33.6097 67.8905 33.1631 66.7662 33.1631ZM66.7662 38.798H65.9779C66.0295 38.3345 66.0554 37.8685 66.0555 37.4022C66.0561 36.9358 66.0302 36.4698 65.9779 36.0064H66.7662C67.1364 36.0064 67.4914 36.1534 67.7532 36.4152C68.015 36.677 68.1621 37.032 68.1621 37.4022C68.1621 37.7724 68.015 38.1274 67.7532 38.3891C67.4914 38.6509 67.1364 38.798 66.7662 38.798ZM62.3979 41.6413C62.3979 41.7834 62.2945 41.9256 62.2299 42.0678C62.0221 42.5115 61.7892 42.943 61.5321 43.3602C61.2876 43.7743 61.0156 44.1715 60.7178 44.5492C60.1385 45.2836 59.4748 45.9472 58.7404 46.5266C58.3628 46.8243 57.9655 47.0963 57.5513 47.3408C57.1342 47.5979 56.7027 47.8309 56.2589 48.0387L55.8325 48.2067C55.3677 48.3846 54.893 48.5356 54.4109 48.659C53.9437 48.7786 53.4685 48.865 52.9891 48.9175C52.0637 49.0554 51.1231 49.0554 50.1976 48.9175C49.7182 48.865 49.2432 48.7786 48.776 48.659C48.2933 48.5375 47.8184 48.3864 47.3542 48.2067L46.9278 48.0387C46.484 47.8309 46.0525 47.5979 45.6354 47.3408C45.2213 47.0963 44.824 46.8243 44.4463 46.5266C43.712 45.9472 43.0484 45.2836 42.4691 44.5492C42.1713 44.1715 41.8993 43.7743 41.6548 43.3602C41.3977 42.943 41.1647 42.5115 40.9569 42.0678C40.9569 41.9256 40.8406 41.7834 40.7889 41.6413C40.6052 41.1785 40.4541 40.7035 40.3366 40.2196C40.22 39.7511 40.1293 39.2765 40.065 38.798C40.0092 38.3347 39.979 37.8688 39.9746 37.4022C39.9782 36.9356 40.0083 36.4695 40.065 36.0064C40.1281 35.5277 40.2188 35.053 40.3366 34.5847C40.4522 34.1004 40.6034 33.6252 40.7889 33.1631C40.7889 33.0209 40.8923 32.8787 40.9569 32.7366C41.1621 32.2915 41.3952 31.8598 41.6548 31.4442C41.8993 31.0301 42.1713 30.6328 42.4691 30.2552C43.0449 29.5177 43.7089 28.8536 44.4463 28.2778C44.8269 27.9801 45.2239 27.7039 45.6354 27.4506C46.0527 27.1978 46.4842 26.9691 46.9278 26.7657L47.3542 26.5976C47.8164 26.4121 48.2917 26.261 48.776 26.1453C49.2443 26.0276 49.7189 25.937 50.1976 25.8739C50.6608 25.8172 51.1268 25.787 51.5934 25.7834C52.06 25.7874 52.5259 25.8176 52.9891 25.8739C53.4676 25.9382 53.9424 26.0288 54.4109 26.1453C54.8947 26.2628 55.3697 26.414 55.8325 26.5976L56.2589 26.7657C56.7025 26.9691 57.134 27.1978 57.5513 27.4506C57.9628 27.7039 58.3599 27.9801 58.7404 28.2778C59.4779 28.8536 60.142 29.5177 60.7178 30.2552C61.0156 30.6328 61.2876 31.0301 61.5321 31.4442C61.7892 31.8613 62.0221 32.2928 62.2299 32.7366C62.2299 32.8787 62.3462 33.0209 62.3979 33.1631C62.5834 33.6252 62.7345 34.1004 62.8502 34.5847C62.9679 35.053 63.0586 35.5277 63.1217 36.0064C63.1784 36.4695 63.2085 36.9356 63.2121 37.4022C63.2077 37.8688 63.1776 38.3347 63.1217 38.798C63.0574 39.2765 62.9667 39.7511 62.8502 40.2196C62.7308 40.7029 62.5797 41.1778 62.3979 41.6413ZM63.3027 47.1598C63.4325 47.2897 63.5355 47.4438 63.6057 47.6135C63.676 47.7831 63.7121 47.9649 63.7121 48.1485C63.7121 48.3322 63.676 48.514 63.6057 48.6836C63.5355 48.8533 63.4325 49.0074 63.3027 49.1372C63.1728 49.2671 63.0186 49.3701 62.8489 49.4403C62.6793 49.5106 62.4976 49.5468 62.3139 49.5468C62.1303 49.5468 61.9484 49.5106 61.7788 49.4403C61.6092 49.3701 61.4551 49.2671 61.3252 49.1372L60.7694 48.5815C61.4885 47.9852 62.1505 47.3232 62.7468 46.6041L63.3027 47.1598ZM52.9634 52.6009C52.9634 52.9711 52.8162 53.3261 52.5545 53.5879C52.2927 53.8496 51.9377 53.9967 51.5675 53.9967C51.1973 53.9967 50.8423 53.8496 50.5805 53.5879C50.3188 53.3261 50.1718 52.9711 50.1718 52.6009V51.8254C50.6352 51.8777 51.1011 51.9036 51.5675 51.903C52.0338 51.9029 52.4999 51.877 52.9634 51.8254V52.6009ZM41.8099 49.1372C41.5432 49.3909 41.1893 49.5323 40.8212 49.5323C40.4532 49.5323 40.0992 49.3909 39.8325 49.1372C39.7005 49.0075 39.5957 48.8525 39.5247 48.6816C39.4537 48.5107 39.4177 48.3272 39.4188 48.1421C39.414 47.9584 39.4485 47.7757 39.5198 47.6063C39.5911 47.437 39.6977 47.2848 39.8325 47.1598L40.3881 46.6041C40.9811 47.3263 41.6434 47.9886 42.3656 48.5815L41.8099 49.1372ZM34.973 37.4022C34.973 37.032 35.12 36.677 35.3818 36.4152C35.6436 36.1534 35.9986 36.0064 36.3688 36.0064H37.1571C37.1048 36.4698 37.079 36.9358 37.0797 37.4022C37.0797 37.8685 37.1055 38.3345 37.1571 38.798H36.4205C36.2329 38.8049 36.0459 38.774 35.8706 38.7069C35.6952 38.6399 35.5351 38.5382 35.4 38.4079C35.2648 38.2776 35.1573 38.1214 35.0839 37.9485C35.0106 37.7757 34.9729 37.5899 34.973 37.4022ZM39.8325 27.6445C39.5728 27.3809 39.4272 27.0258 39.4272 26.6558C39.4272 26.2858 39.5728 25.9307 39.8325 25.6671C39.9574 25.5323 40.1096 25.4257 40.279 25.3544C40.4484 25.2831 40.631 25.2487 40.8147 25.2536C40.9999 25.2524 41.1834 25.2884 41.3543 25.3594C41.5252 25.4305 41.6802 25.5351 41.8099 25.6671L42.3656 26.2229C41.6434 26.8158 40.9811 27.4781 40.3881 28.2002L39.8325 27.6445ZM50.1718 22.2035C50.1718 21.8333 50.3188 21.4783 50.5805 21.2165C50.8423 20.9547 51.1973 20.8077 51.5675 20.8077C51.9377 20.8077 52.2927 20.9547 52.5545 21.2165C52.8162 21.4783 52.9634 21.8333 52.9634 22.2035V22.9789C52.4981 22.9789 52.0328 22.9143 51.5675 22.9143C51.1022 22.9143 50.6241 22.9143 50.1718 22.9789V22.2035ZM61.3252 25.6671C61.5919 25.4135 61.9459 25.272 62.3139 25.272C62.682 25.272 63.036 25.4135 63.3027 25.6671C63.4331 25.7953 63.5368 25.9482 63.6078 26.1168C63.6788 26.2854 63.7156 26.4664 63.7162 26.6494C63.7115 27.0219 63.5635 27.3784 63.3027 27.6445L62.7468 28.2002C62.1539 27.4781 61.4916 26.8158 60.7694 26.2229L61.3252 25.6671Z" fill="#66666A"/>
<path d="M51.5675 30.3975C50.1821 30.3975 48.8279 30.8083 47.676 31.578C46.524 32.3477 45.6261 33.4417 45.0959 34.7217C44.5657 36.0016 44.4271 37.4101 44.6974 38.7689C44.9677 40.1277 45.6347 41.3758 46.6144 42.3555C47.594 43.3351 48.8422 44.0023 50.201 44.2726C51.5598 44.5428 52.9683 44.4041 54.2483 43.8739C55.5282 43.3438 56.6222 42.4459 57.3919 41.294C58.1616 40.1421 58.5724 38.7877 58.5724 37.4023C58.5724 35.5445 57.8344 33.7628 56.5207 32.4491C55.2071 31.1355 53.4253 30.3975 51.5675 30.3975ZM47.406 37.4023C47.406 36.5792 47.6502 35.7747 48.1075 35.0903C48.5647 34.4059 49.2146 33.8725 49.9751 33.5575C50.7355 33.2426 51.5721 33.1601 52.3794 33.3207C53.1867 33.4813 53.9282 33.8776 54.5102 34.4596C55.0922 35.0416 55.4887 35.7832 55.6492 36.5904C55.8098 37.3977 55.7274 38.2344 55.4124 38.9949C55.0974 39.7553 54.5639 40.4052 53.8796 40.8625C53.1952 41.3198 52.3906 41.5639 51.5675 41.5639C50.4638 41.5639 49.4054 41.1254 48.6249 40.345C47.8445 39.5645 47.406 38.506 47.406 37.4023Z" fill="#66666A"/>
</g>
<defs>
<clipPath id="clip0_78_1339">
<rect width="98.9855" height="80" fill="white" transform="translate(0.142578)"/>
</clipPath>
</defs>
</svg>
